<?xml version="1.0" standalone="no"?>
<!DOCTYPE svg PUBLIC "-//W3C//DTD SVG 20010904//EN"
 "http://www.w3.org/TR/2001/REC-SVG-20010904/DTD/svg10.dtd">
<svg version="1.0" xmlns="http://www.w3.org/2000/svg"
 width="299.000000pt" height="168.000000pt" viewBox="0 0 299.000000 168.000000"
 preserveAspectRatio="xMidYMid meet">

<g transform="translate(0.000000,168.000000) scale(0.100000,-0.100000)"
fill="#000000" stroke="none">
<path d="M2563 1143 c-23 -4 -23 -5 -23 -199 0 -187 -1 -194 -20 -194 -16 0
-20 7 -20 34 0 19 -5 36 -11 38 -8 3 -8 10 2 25 7 12 9 26 5 30 -5 4 -11 3
-13 -4 -3 -10 -9 -10 -24 0 -13 8 -22 9 -27 2 -4 -6 -22 -8 -42 -4 -38 6 -23
19 20 16 16 -1 26 4 28 16 4 20 -33 25 -41 5 -3 -7 -6 2 -6 20 -1 25 -5 32
-21 32 -13 0 -20 -7 -20 -20 0 -11 -5 -20 -11 -20 -6 0 -9 25 -8 66 2 66 -6
83 -38 84 -7 0 -10 7 -7 15 4 8 1 15 -5 15 -6 0 -10 -3 -10 -7 5 -30 -2 -40
-26 -35 l-26 5 3 -172 c2 -94 1 -171 -2 -171 -25 1 -31 23 -31 108 l0 92 -44
0 c-40 0 -45 -3 -46 -22 -1 -22 -1 -22 -9 2 -7 23 -8 23 -9 4 -1 -12 -7 -24
-15 -27 -10 -4 -12 0 -9 14 6 23 -5 24 -35 3 -15 -10 -22 -11 -22 -3 0 7 -10
9 -29 6 -25 -5 -30 -3 -33 16 -2 18 -9 22 -38 22 -29 0 -36 -4 -38 -22 -2 -14
-10 -23 -20 -23 -14 0 -14 -2 -3 -9 11 -7 10 -10 -4 -18 -14 -8 -15 -14 -7
-28 6 -12 6 -28 0 -46 -8 -25 -12 -27 -29 -16 -12 8 -20 24 -21 47 l-1 35 -4
-32 c-2 -18 -7 -33 -11 -33 -22 1 -35 23 -36 59 -1 56 -16 52 -16 -4 0 -25 -4
-45 -8 -45 -5 0 -7 14 -4 30 3 18 0 30 -7 30 -6 0 -11 -12 -11 -27 -1 -24 -2
-26 -11 -10 -5 9 -7 22 -4 27 3 6 -1 10 -9 10 -9 0 -16 -4 -16 -10 0 -5 -5
-10 -11 -10 -6 0 -9 9 -6 19 3 14 -2 21 -21 26 -14 3 -28 2 -31 -2 -3 -5 -16
-10 -28 -10 -19 -2 -23 3 -23 28 0 32 12 30 -147 34 -81 2 -83 2 -83 -20 0
-36 -11 -55 -31 -55 -10 0 -19 5 -19 10 0 6 -24 10 -54 10 -54 0 -55 0 -58 32
-2 22 -9 34 -20 36 -15 3 -18 -4 -18 -42 0 -31 -4 -46 -13 -46 -9 0 -12 11 -9
34 2 19 -1 37 -8 41 -7 4 -11 1 -9 -6 4 -36 -2 -80 -11 -74 -5 3 -10 -2 -10
-11 0 -17 -1 -16 -13 1 -8 10 -19 15 -25 11 -6 -3 -13 2 -15 11 -4 17 -5 17
-6 1 -1 -15 -10 -18 -51 -18 l-50 0 -6 40 c-5 30 -11 40 -25 40 -15 0 -19 -7
-19 -35 0 -35 -5 -39 -47 -35 -12 1 -30 -3 -40 -9 -17 -9 -17 -10 0 -16 9 -4
17 -17 17 -29 0 -11 -4 -16 -8 -11 -12 16 -32 16 -26 0 4 -9 0 -15 -10 -15 -9
0 -16 5 -16 11 0 8 -4 8 -13 1 -10 -8 -12 -2 -9 28 3 26 10 40 20 43 10 3 5 5
-10 6 -15 0 -30 -4 -33 -9 -4 -6 -25 -9 -51 -6 -27 4 -44 2 -44 -5 0 -13 -41
-2 -55 15 -13 14 -35 19 -35 7 0 -5 6 -12 13 -14 13 -6 -7 -8 -88 -8 -69 0
-101 5 -119 20 -14 11 -16 11 -16 -6 0 -10 -6 -28 -14 -39 -14 -18 -15 -18
-25 9 -11 28 -31 37 -31 15 0 -8 -7 -5 -15 6 -12 15 -15 16 -20 5 -6 -16 -45
-23 -45 -8 0 5 -5 9 -11 9 -5 0 -7 -5 -3 -12 4 -7 3 -8 -4 -4 -18 11 -82 -5
-82 -20 0 -8 7 -14 16 -14 11 0 14 -5 10 -16 -3 -9 -6 -18 -6 -20 0 -3 -4 -2
-10 1 -7 4 -10 -127 -10 -384 l0 -391 1495 0 1495 0 0 141 c0 86 -4 149 -11
162 -9 16 -9 22 0 25 16 5 15 159 -1 165 -10 4 -10 6 0 6 6 1 12 8 12 16 0 11
-5 12 -26 5 l-25 -10 2 66 c2 48 -1 68 -12 74 -11 7 -11 12 -1 22 14 14 17 52
3 43 -5 -3 -11 3 -14 12 -3 15 -6 14 -14 -7 l-11 -25 -10 25 c-8 19 -11 21
-11 7 -1 -10 -8 -25 -16 -33 -8 -8 -11 -22 -8 -32 6 -14 8 -13 13 8 6 23 7 22
11 -11 3 -19 2 -46 -1 -60 -7 -28 -1 -59 11 -59 4 0 7 24 6 54 -2 30 0 62 4
72 4 11 8 -12 8 -53 1 -66 11 -93 24 -60 3 7 6 5 6 -5 1 -17 -15 -23 -48 -19
-7 2 -11 -3 -9 -11 3 -7 20 -14 38 -15 56 -5 47 -13 -16 -13 -58 -1 -59 -1
-29 -15 l30 -13 -40 -1 c-40 -1 -40 -1 -40 -41 -1 -35 2 -40 21 -40 12 0 36
-8 53 -18 31 -17 31 -18 31 -89 0 -5 -19 -8 -42 -8 l-43 0 0 53 c0 52 -12 70
-22 32 -3 -11 -13 -20 -22 -20 -14 0 -14 2 -1 10 12 8 11 10 -7 10 -14 0 -23
6 -23 16 0 8 -4 13 -9 10 -5 -3 -14 1 -21 9 -7 8 -19 15 -27 15 -11 0 -9 -5 7
-18 19 -15 21 -24 15 -51 -5 -26 -9 -30 -17 -20 -7 10 -9 8 -5 -8 4 -16 -2
-24 -22 -31 -34 -13 -71 -13 -71 -1 0 5 -13 9 -30 9 -19 0 -30 5 -30 14 0 8
-6 17 -12 20 -7 3 14 5 47 4 40 -1 64 -7 71 -16 6 -8 16 -12 22 -8 18 11 14
26 -5 26 -11 0 -6 8 16 24 l33 25 -31 15 c-17 9 -30 20 -30 24 1 4 1 19 0 35
-1 24 -5 27 -36 27 -19 0 -35 5 -35 11 0 7 15 9 42 5 28 -4 44 -2 50 7 6 9 8
9 8 0 0 -7 9 -13 21 -13 15 0 19 5 15 15 -3 8 -1 15 4 15 6 0 10 -8 10 -17 1
-17 1 -17 10 -1 8 13 22 16 64 14 47 -2 53 -1 48 16 -2 10 -9 18 -14 18 -5 0
-7 -4 -4 -8 2 -4 -7 -8 -22 -7 -26 0 -27 3 -30 55 -2 37 -8 59 -19 68 -9 6
-12 12 -6 12 6 0 9 13 7 30 -2 17 1 30 7 30 7 0 8 11 4 30 -6 28 -5 30 24 30
17 0 30 3 30 8 -3 18 2 32 12 32 6 0 8 -7 5 -16 -4 -9 -2 -13 5 -8 6 4 16 0
21 -7 7 -11 11 -11 15 -1 6 14 33 16 33 2 0 -5 14 -10 30 -10 l30 0 0 105 c0
59 -4 105 -9 105 -6 0 -11 -19 -13 -42 l-3 -43 -22 24 c-20 21 -23 22 -29 8
-3 -10 -14 -17 -24 -17 -23 0 -31 -31 -11 -46 8 -6 11 -16 7 -22 -10 -17 -41
-15 -56 3 -10 12 -9 15 5 15 12 0 15 5 11 16 -3 9 -6 21 -6 28 0 9 -9 12 -25
8 -14 -2 -32 1 -40 8 -13 11 -15 8 -15 -14 0 -14 -4 -26 -10 -26 -6 0 -10 48
-10 125 l0 125 -42 0 c-24 0 -59 2 -78 4 -19 2 -45 2 -57 -1z m-259 -141 c3
-5 -1 -9 -9 -9 -8 0 -12 4 -9 9 3 4 7 8 9 8 2 0 6 -4 9 -8z m-11 -39 c-5 -12
-3 -14 7 -8 9 6 11 4 5 -4 -5 -9 -11 -9 -17 -3 -6 6 -7 15 -4 21 11 17 16 13
9 -6z m-683 -114 c0 -12 -7 -19 -19 -19 -14 0 -17 6 -14 24 6 29 33 24 33 -5z
m1364 -8 c-8 -33 -8 -33 -27 -26 -22 9 -28 43 -9 54 26 15 43 2 36 -28z
m-2817 -13 c-3 -8 -6 -5 -6 6 -1 11 2 17 5 13 3 -3 4 -12 1 -19z m2245 -1
c-12 -6 -22 -15 -22 -21 0 -6 -5 -4 -10 4 -12 19 -13 33 -1 25 5 -3 12 -1 16
4 3 6 13 7 22 4 14 -6 14 -8 -5 -16z m386 12 c-2 -6 -8 -10 -13 -10 -5 0 -11
4 -13 10 -2 6 4 11 13 11 9 0 15 -5 13 -11z m-2303 -9 c-3 -5 -10 -10 -16 -10
-5 0 -9 5 -9 10 0 6 7 10 16 10 8 0 12 -4 9 -10z m151 -18 c-22 -5 -30 3 -21
18 5 8 11 7 22 -2 15 -12 14 -13 -1 -16z m837 21 c-7 -2 -13 -9 -13 -14 0 -6
5 -7 10 -4 6 3 10 1 10 -4 0 -6 -9 -11 -20 -11 -13 0 -20 7 -20 20 0 14 6 20
23 19 12 0 16 -3 10 -6z m997 -13 c0 -5 -5 -10 -11 -10 -5 0 -7 5 -4 10 3 6 8
10 11 10 2 0 4 -4 4 -10z m-1285 -25 c1 -12 7 -19 15 -16 34 8 60 8 60 0 0 -9
-12 -11 -57 -12 -23 0 -24 -12 -7 -65 3 -9 -2 -11 -15 -7 -11 3 -22 1 -25 -4
-4 -6 -14 -7 -22 -4 -9 3 -20 0 -24 -8 -5 -7 -12 -10 -15 -7 -11 11 5 28 26
28 21 0 26 15 8 26 -8 4 -7 9 2 15 11 7 11 9 -2 9 -9 0 -19 6 -22 13 -2 7 -20
13 -38 14 -20 0 -24 -1 -11 -4 12 -2 22 -10 22 -18 0 -7 8 -16 18 -18 9 -3 0
-5 -20 -6 -26 -1 -43 5 -58 21 -11 12 -20 16 -20 9 0 -7 -4 -9 -10 -6 -5 3
-10 16 -10 28 0 14 3 18 8 10 6 -10 14 -9 34 2 35 17 52 20 113 20 43 0 50 -3
50 -20z m85 15 c0 -5 -2 -10 -4 -10 -3 0 -8 5 -11 10 -3 6 -1 10 4 10 6 0 11
-4 11 -10z m-669 -10 c10 0 19 -4 19 -10 0 -5 -7 -10 -15 -10 -8 0 -15 -4 -15
-10 0 -5 -5 -10 -11 -10 -6 0 -9 6 -6 13 2 6 -3 18 -12 25 -14 12 -14 13 2 8
10 -3 27 -6 38 -6z m1259 -5 c0 -8 6 -15 14 -15 7 0 19 -7 26 -15 11 -14 10
-14 -14 -5 -15 5 -32 8 -37 4 -5 -3 -9 6 -9 20 0 14 5 26 10 26 6 0 10 -7 10
-15z m895 6 c3 -5 1 -12 -5 -16 -5 -3 -10 1 -10 9 0 18 6 21 15 7z m-1415 -13
c0 -4 -17 -8 -37 -7 -30 0 -34 2 -18 9 24 10 55 9 55 -2z m70 -19 c0 -16 -4
-28 -9 -25 -8 5 -3 56 5 56 2 0 4 -14 4 -31z m763 -1 c-3 -18 -9 -35 -14 -38
-9 -7 -12 -31 -10 -123 1 -77 1 -77 26 -71 15 4 25 2 25 -5 0 -6 -8 -11 -17
-12 -10 -1 -2 -5 17 -10 19 -5 50 -6 68 -3 25 4 32 1 32 -11 0 -9 -4 -13 -10
-10 -5 3 -18 1 -27 -4 -14 -8 -5 -10 38 -11 l55 0 -6 -57 c-4 -32 -5 -63 -3
-69 2 -7 -1 -15 -8 -20 -8 -5 -10 -3 -4 7 8 12 6 12 -8 0 -14 -11 -17 -11 -21
0 -13 41 -14 43 -15 22 -1 -21 -21 -34 -21 -14 0 15 -39 9 -45 -7 -3 -8 0 -10
6 -6 7 4 10 0 7 -10 -1 -10 -7 -16 -12 -16 -5 1 -13 -4 -18 -12 -7 -9 -8 -8
-4 6 4 11 1 23 -6 28 -11 6 -10 10 0 17 10 6 6 10 -15 14 -36 7 -42 1 -17 -17
10 -8 16 -18 11 -22 -4 -4 -7 -2 -7 4 0 7 -4 12 -10 12 -5 0 -6 -8 -3 -17 6
-16 5 -16 -11 -4 -9 8 -15 20 -12 28 4 9 1 11 -6 7 -7 -5 -9 1 -4 19 3 15 3
45 0 67 -5 33 -10 40 -30 40 -18 0 -23 -6 -26 -32 -2 -25 -8 -33 -23 -34 -12
-1 -31 -6 -42 -13 -27 -14 -32 -5 -29 42 2 21 -1 40 -5 43 -5 3 -9 -11 -9 -30
0 -19 -5 -38 -11 -41 -13 -9 -27 4 -14 13 16 11 12 36 -9 52 -10 8 -26 23 -36
32 -10 9 -28 22 -40 28 -19 10 -21 19 -18 61 3 47 2 49 -27 55 -16 4 -46 7
-65 6 -28 -1 -31 0 -15 7 16 8 13 10 -17 10 -35 1 -38 -1 -38 -26 0 -20 -3
-24 -11 -16 -6 6 -35 10 -67 8 -32 -2 -45 -1 -29 1 15 3 27 10 27 15 0 12 -3
11 -37 -3 -15 -6 -31 -11 -35 -10 -5 1 -8 -5 -8 -13 0 -10 -10 -15 -30 -15
-23 0 -30 4 -30 20 0 16 7 20 35 20 24 0 35 5 35 15 0 8 -7 15 -16 15 -13 0
-14 3 -5 13 6 8 8 17 4 20 -5 6 179 12 215 8 7 -1 13 10 13 26 l2 28 4 -27 c4
-27 6 -28 66 -28 58 0 62 -2 62 -23 0 -19 -4 -22 -32 -19 -22 3 -33 0 -33 -8
0 -7 8 -10 20 -7 24 6 51 -18 44 -38 -5 -12 2 -15 27 -14 24 1 27 3 12 6 -18
3 -23 11 -23 33 0 23 4 27 19 23 15 -4 20 0 18 16 -1 21 -17 30 -17 10 0 -5
-5 -7 -10 -4 -21 13 19 37 55 32 20 -3 35 0 35 5 0 6 8 4 17 -3 11 -10 14 -10
9 -1 -5 9 3 12 28 12 20 0 36 -4 36 -10 0 -5 12 -10 28 -10 21 0 24 2 12 10
-13 8 -13 10 2 10 9 0 18 -6 21 -12 2 -7 8 1 12 17 7 28 22 55 31 55 2 0 1
-15 -3 -32z m-1807 10 c2 -3 -28 -6 -68 -6 -46 -1 -75 -6 -80 -14 -6 -10 -8
-9 -8 4 0 9 6 18 13 21 15 6 136 1 143 -5z m264 -30 c0 -11 -7 -18 -20 -18
-18 0 -27 19 -15 32 12 12 35 3 35 -14z m120 10 c0 -4 -11 -8 -25 -8 -14 0
-25 -6 -25 -12 0 -9 -3 -8 -9 2 -6 8 -8 17 -5 21 6 10 64 8 64 -3z m80 -3 c0
-9 -6 -12 -15 -9 -8 3 -21 -1 -30 -10 -19 -19 -51 -10 -35 10 7 7 24 15 38 17
15 2 30 5 35 6 4 0 7 -6 7 -14z m485 -15 c8 0 19 8 24 18 6 9 11 12 11 5 0 -7
7 -10 15 -7 9 4 15 0 15 -10 0 -9 -3 -15 -7 -15 -29 5 -41 -3 -36 -21 6 -23
-12 -27 -31 -7 -7 6 -25 21 -40 32 l-26 20 22 6 c14 3 26 0 31 -8 4 -7 14 -13
22 -13z m392 8 c-3 -8 -6 -5 -6 6 -1 11 2 17 5 13 3 -3 4 -12 1 -19z m383 18
c0 -3 -4 -8 -10 -11 -5 -3 -10 -1 -10 4 0 6 5 11 10 11 6 0 10 -2 10 -4z m370
-6 c0 -5 -4 -10 -10 -10 -5 0 -10 5 -10 10 0 6 5 10 10 10 6 0 10 -4 10 -10z
m180 0 c0 -5 -4 -10 -10 -10 -5 0 -10 5 -10 10 0 6 5 10 10 10 6 0 10 -4 10
-10z m-2090 -15 c0 -7 8 -19 18 -24 14 -9 11 -10 -16 -11 -18 0 -31 4 -28 9 4
5 -3 7 -14 4 -20 -5 -29 15 -13 30 12 13 53 7 53 -8z m392 -2 c-6 -3 -10 -9
-7 -14 4 -5 -1 -6 -10 -3 -14 6 -14 8 2 19 10 8 20 11 23 8 3 -3 -1 -8 -8 -10z
m1745 11 c-3 -3 -12 -4 -19 -1 -8 3 -5 6 6 6 11 1 17 -2 13 -5z m-1462 -22
c-3 -3 -11 0 -18 7 -9 10 -8 11 6 5 10 -3 15 -9 12 -12z m-235 -7 c0 -8 -4
-15 -10 -15 -5 0 -10 7 -10 15 0 8 5 15 10 15 6 0 10 -7 10 -15z m-583 -35 c1
-14 -1 -17 -3 -8 -3 10 -11 15 -20 11 -9 -3 -14 1 -14 12 0 27 35 13 37 -15z
m2020 -7 c-3 -10 -5 -4 -5 12 0 17 2 24 5 18 2 -7 2 -21 0 -30z m253 27 c0 -5
-4 -10 -10 -10 -5 0 -10 5 -10 10 0 6 5 10 10 10 6 0 10 -4 10 -10z m80 0 c0
-5 -7 -10 -16 -10 -8 0 -12 5 -9 10 3 6 10 10 16 10 5 0 9 -4 9 -10z m-1690
-10 c13 -8 12 -10 -2 -10 -10 0 -18 -3 -18 -6 0 -4 8 -13 18 -21 15 -13 15
-13 -4 -4 -12 6 -25 7 -29 3 -5 -4 -5 1 -2 11 4 9 2 17 -3 17 -6 0 -10 -6 -10
-14 0 -7 -11 -16 -25 -18 -14 -3 -25 -1 -25 3 0 5 10 9 23 10 12 0 16 3 10 6
-7 2 -13 9 -13 14 0 6 4 7 10 4 5 -3 18 -1 27 4 22 13 25 13 43 1z m1180 -12
c0 -18 -2 -20 -9 -8 -6 8 -7 18 -5 22 9 14 14 9 14 -14z m50 12 c0 -5 -7 -7
-15 -4 -8 4 -15 8 -15 10 0 2 7 4 15 4 8 0 15 -4 15 -10z m17 -10 c-1 -11 -7
-20 -14 -20 -11 0 -11 4 -1 20 7 11 14 20 15 20 1 0 1 -9 0 -20z m83 0 c0 -11
-7 -20 -15 -20 -8 0 -15 6 -15 14 0 8 -6 17 -12 19 -7 3 -1 6 15 6 21 1 27 -4
27 -19z m158 8 c17 -17 15 -35 -4 -42 -14 -5 -15 -4 -4 9 10 12 11 18 1 28
-10 9 -11 8 -6 -5 4 -11 2 -18 -4 -18 -6 0 -11 9 -11 20 0 23 10 26 28 8z m69
6 c-3 -3 -12 -4 -19 -1 -8 3 -5 6 6 6 11 1 17 -2 13 -5z m-1659 -23 c-12 -20
-59 -26 -55 -7 3 16 12 21 42 24 22 2 24 0 13 -17z m332 -1 c0 -11 -4 -20 -10
-20 -5 0 -10 9 -10 20 0 11 5 20 10 20 6 0 10 -9 10 -20z m1220 -1 c0 -14 -17
-10 -23 5 -4 10 -1 13 9 9 7 -3 14 -9 14 -14z m-1990 1 c0 -5 -4 -10 -10 -10
-5 0 -10 5 -10 10 0 6 5 10 10 10 6 0 10 -4 10 -10z m922 -2 c-11 -11 -112
-29 -112 -20 0 15 41 31 80 32 34 0 41 -3 32 -12z m906 -5 c-2 -14 3 -17 20
-15 12 2 22 -2 22 -7 0 -6 -13 -11 -29 -11 -23 0 -28 4 -26 23 3 26 3 27 10
27 3 0 5 -8 3 -17z m122 7 c0 -5 -4 -10 -10 -10 -5 0 -10 5 -10 10 0 6 5 10
10 10 6 0 10 -4 10 -10z m280 6 c0 -11 -19 -15 -25 -6 -3 5 1 10 9 10 9 0 16
-2 16 -4z m-1490 -16 c0 -5 -5 -10 -11 -10 -5 0 -7 5 -4 10 3 6 8 10 11 10 2
0 4 -4 4 -10z m1373 3 c-24 -2 -43 -8 -43 -13 0 -5 18 -8 40 -6 51 4 53 -11 3
-17 -21 -3 -3 -4 40 -3 l77 1 0 -57 0 -58 -60 0 -60 0 0 30 c0 20 -5 30 -15
30 -8 0 -15 5 -15 11 0 6 7 9 15 5 8 -3 15 -1 15 4 0 5 -11 12 -25 16 -19 5
-25 13 -25 35 0 28 1 29 48 27 l47 -1 -42 -4z m-196 -25 c-3 -8 -6 -5 -6 6 -1
11 2 17 5 13 3 -3 4 -12 1 -19z m-1237 -10 c0 -19 -2 -20 -10 -8 -8 13 -10 12
-10 -3 0 -10 -6 -25 -14 -33 -16 -16 -40 -19 -31 -4 3 5 -12 9 -37 8 -73 -1
-110 5 -115 19 -9 23 -35 15 -31 -9 5 -38 -35 -36 -62 3 l-23 31 31 -7 c17 -3
37 -3 44 1 18 12 40 11 57 -1 11 -7 13 -7 7 3 -14 24 33 12 60 -15 17 -19 28
-24 31 -15 3 6 10 9 16 5 7 -4 8 0 4 13 -7 18 -6 18 7 2 18 -25 26 -22 26 7 0
20 5 25 25 25 19 0 25 -5 25 -22z m1120 18 c0 -3 -4 -8 -10 -11 -5 -3 -10 -1
-10 4 0 6 5 11 10 11 6 0 10 -2 10 -4z m150 -6 c0 -5 -2 -10 -4 -10 -3 0 -8 5
-11 10 -3 6 -1 10 4 10 6 0 11 -4 11 -10z m38 -19 c-2 -32 -13 -33 -21 -1 -3
11 -1 18 4 14 5 -3 9 0 9 5 0 6 2 11 5 11 3 0 4 -13 3 -29z m-1713 9 c3 -5 -1
-10 -10 -10 -9 0 -13 5 -10 10 3 6 8 10 10 10 2 0 7 -4 10 -10z m475 -5 c0
-17 31 -36 57 -33 10 0 33 0 51 0 30 -2 32 -4 32 -42 l0 -40 -40 0 c-23 0 -40
-5 -40 -11 0 -6 7 -8 18 -4 9 3 0 -9 -20 -28 -41 -38 -46 -52 -23 -61 11 -4
15 2 16 22 1 20 2 22 6 7 3 -11 12 -26 21 -32 23 -19 12 -22 -28 -9 l-35 11
-6 75 c-3 41 -6 69 -7 62 -2 -10 -6 -10 -18 2 -12 12 -14 26 -9 56 6 38 25 57
25 25z m-870 -5 c0 -5 -2 -10 -4 -10 -3 0 -8 5 -11 10 -3 6 -1 10 4 10 6 0 11
-4 11 -10z m2135 0 c3 -5 1 -10 -4 -10 -6 0 -11 5 -11 10 0 6 2 10 4 10 3 0 8
-4 11 -10z m-838 -6 c-3 -3 -12 -4 -19 -1 -8 3 -5 6 6 6 11 1 17 -2 13 -5z
m843 -24 c0 -5 -4 -10 -10 -10 -5 0 -10 5 -10 10 0 6 5 10 10 10 6 0 10 -4 10
-10z m-1555 -9 c-3 -5 5 -12 17 -14 17 -3 14 -5 -9 -6 -31 -1 -41 8 -26 22 10
10 25 8 18 -2z m85 -19 c0 -5 -7 -9 -15 -9 -8 0 -15 4 -15 9 0 4 7 8 15 8 8 0
15 -4 15 -8z m1487 -14 c-3 -8 -6 -5 -6 6 -1 11 2 17 5 13 3 -3 4 -12 1 -19z
m-1327 -8 c0 -5 -7 -10 -15 -10 -8 0 -15 5 -15 10 0 6 7 10 15 10 8 0 15 -4
15 -10z m1298 3 c-10 -2 -26 -2 -35 0 -10 3 -2 5 17 5 19 0 27 -2 18 -5z
m-1088 -98 c0 -36 -4 -45 -17 -46 -15 0 -15 -2 2 -9 17 -7 17 -9 3 -9 -10 -1
-18 -7 -18 -15 0 -8 -6 -16 -14 -19 -15 -6 -32 36 -21 53 3 4 -1 11 -7 14 -10
5 -10 7 0 12 10 5 10 9 1 20 -9 11 -9 14 1 14 7 0 10 7 6 15 -4 12 3 15 29 15
35 0 35 0 35 -45z m160 9 c0 -22 -4 -24 -42 -24 -27 0 -38 -3 -30 -9 8 -4 24
-7 38 -5 21 2 24 -2 24 -31 l0 -34 -50 2 c-48 2 -56 8 -51 40 0 4 -6 7 -14 7
-22 0 -18 15 8 28 22 10 22 11 -5 11 -28 1 -41 21 -14 21 7 0 18 6 24 13 7 7
29 11 61 9 46 -4 51 -6 51 -28z m730 26 c0 -5 -4 -10 -10 -10 -5 0 -10 5 -10
10 0 6 5 10 10 10 6 0 10 -4 10 -10z m617 -42 c-3 -7 -5 -2 -5 12 0 14 2 19 5
13 2 -7 2 -19 0 -25z m-2 -78 c-3 -5 -17 -10 -30 -10 -13 0 -27 5 -30 10 -4 6
8 10 30 10 22 0 34 -4 30 -10z m-1412 -50 c-10 -11 -19 -20 -20 -20 -2 0 -3 9
-3 20 0 13 7 20 20 20 19 0 19 -1 3 -20z m714 -2 c-3 -8 -6 -5 -6 6 -1 11 2
17 5 13 3 -3 4 -12 1 -19z m-937 -6 c0 -5 -6 -17 -14 -28 -14 -19 -15 -19 -22
1 -4 11 -12 23 -18 27 -6 4 4 8 22 8 17 0 32 -4 32 -8z m990 -2 c0 -5 -6 -10
-14 -10 -8 0 -18 5 -21 10 -3 6 3 10 14 10 12 0 21 -4 21 -10z m-615 -26 c-11
-8 -26 -12 -33 -9 -8 3 -21 5 -30 6 -24 1 27 17 58 18 24 0 24 0 5 -15z m752
-16 c-3 -7 -5 -2 -5 12 0 14 2 19 5 13 2 -7 2 -19 0 -25z m363 17 c0 -8 -9
-15 -20 -15 -11 0 -20 4 -20 10 0 5 7 7 15 4 8 -4 15 -1 15 5 0 6 2 11 5 11 3
0 5 -7 5 -15z m-1545 -5 c3 -5 -1 -10 -9 -10 -10 0 -13 -6 -10 -15 4 -9 1 -15
-7 -15 -18 0 -49 20 -32 20 7 0 10 7 7 15 -5 11 1 15 19 15 14 0 29 -4 32 -10z
m467 -30 c2 -5 27 -13 57 -17 56 -8 81 -28 36 -28 -14 0 -25 4 -25 10 0 5 -5
4 -10 -1 -12 -12 -130 12 -165 33 -17 11 -11 12 42 13 34 0 63 -4 65 -10z
m507 -20 c8 -4 -28 -5 -80 -3 -52 3 -98 9 -103 13 -11 11 164 1 183 -10z m54
-7 c-7 -2 -19 -2 -25 0 -7 3 -2 5 12 5 14 0 19 -2 13 -5z m143 -1 c-5 -8 -66
-4 -66 4 0 2 16 4 36 4 19 0 33 -4 30 -8z m451 -8 c-3 -3 -12 -4 -19 -1 -8 3
-5 6 6 6 11 1 17 -2 13 -5z m-572 -44 c20 -1 20 -1 0 -9 -22 -9 -52 -3 -61 10
-3 5 5 7 18 5 13 -3 32 -5 43 -6z m89 -12 c-3 -4 -16 -8 -30 -8 -13 0 -24 4
-24 8 0 5 13 9 30 9 16 0 27 -4 24 -9z m-144 -99 c0 -5 -7 -9 -15 -9 -9 0 -12
6 -9 15 6 15 24 11 24 -6z m-50 -43 c-7 -7 -14 -6 -21 1 -9 9 -7 12 9 10 14
-1 18 -5 12 -11z m40 4 c0 -5 -4 -10 -10 -10 -5 0 -10 5 -10 10 0 6 5 10 10
10 6 0 10 -4 10 -10z"/>
<path d="M2005 700 c4 -6 -6 -10 -22 -11 -28 -1 -28 -1 -3 -8 24 -7 42 -41 21
-41 -6 0 -11 -14 -11 -31 0 -19 4 -28 11 -23 8 4 8 0 0 -15 -9 -16 -9 -21 0
-21 8 0 7 -5 -2 -16 -12 -14 -9 -16 26 -13 49 4 55 11 55 74 0 36 -3 46 -10
35 -7 -11 -10 -2 -10 33 0 26 -4 47 -10 47 -5 0 -10 -16 -10 -35 0 -19 -5 -35
-11 -35 -7 0 -9 12 -5 35 6 28 4 35 -9 35 -9 0 -13 -4 -10 -10z m35 -130 c0
-22 -5 -40 -11 -40 -9 0 -9 13 1 78 0 1 2 2 5 2 3 0 5 -18 5 -40z m27 -12 c-2
-13 -4 -5 -4 17 -1 22 1 32 4 23 2 -10 2 -28 0 -40z"/>
<path d="M2070 692 c0 -15 4 -20 16 -15 9 3 12 9 7 12 -4 3 -11 10 -15 15 -5
5 -8 0 -8 -12z"/>
<path d="M2115 690 c-3 -5 -1 -10 4 -10 6 0 11 5 11 10 0 6 -2 10 -4 10 -3 0
-8 -4 -11 -10z"/>
<path d="M1960 500 c0 -5 5 -10 10 -10 6 0 10 5 10 10 0 6 -4 10 -10 10 -5 0
-10 -4 -10 -10z"/>
<path d="M2155 490 c3 -5 10 -10 16 -10 5 0 9 5 9 10 0 6 -7 10 -16 10 -8 0
-12 -4 -9 -10z"/>
<path d="M2200 490 c-13 -8 -12 -10 3 -10 9 0 17 5 17 10 0 12 -1 12 -20 0z"/>
<path d="M2118 483 c7 -3 16 -2 19 1 4 3 -2 6 -13 5 -11 0 -14 -3 -6 -6z"/>
<path d="M2155 430 c3 -5 8 -10 11 -10 2 0 4 5 4 10 0 6 -5 10 -11 10 -5 0 -7
-4 -4 -10z"/>
<path d="M2290 429 c0 -5 5 -7 10 -4 6 3 10 8 10 11 0 2 -4 4 -10 4 -5 0 -10
-5 -10 -11z"/>
<path d="M2255 380 c3 -5 8 -10 11 -10 2 0 4 5 4 10 0 6 -5 10 -11 10 -5 0 -7
-4 -4 -10z"/>
<path d="M2188 363 c7 -3 16 -2 19 1 4 3 -2 6 -13 5 -11 0 -14 -3 -6 -6z"/>
<path d="M1510 400 c0 -5 6 -10 14 -10 8 0 18 5 21 10 3 6 -3 10 -14 10 -12 0
-21 -4 -21 -10z"/>
<path d="M2476 1083 c-3 -3 -6 -37 -6 -75 0 -54 3 -68 15 -68 12 0 15 14 15
69 0 65 -8 90 -24 74z"/>
<path d="M2870 760 c0 -5 5 -10 10 -10 6 0 10 5 10 10 0 6 -4 10 -10 10 -5 0
-10 -4 -10 -10z"/>
<path d="M2900 760 c0 -5 7 -10 15 -10 8 0 15 -5 15 -12 0 -9 3 -9 12 0 10 10
10 15 -2 22 -20 13 -40 13 -40 0z"/>
<path d="M2810 550 c0 -5 7 -10 15 -10 8 0 15 5 15 10 0 6 -7 10 -15 10 -8 0
-15 -4 -15 -10z"/>
<path d="M2808 483 c7 -3 16 -2 19 1 4 3 -2 6 -13 5 -11 0 -14 -3 -6 -6z"/>
<path d="M2728 453 c7 -3 16 -2 19 1 4 3 -2 6 -13 5 -11 0 -14 -3 -6 -6z"/>
<path d="M2778 453 c7 -3 16 -2 19 1 4 3 -2 6 -13 5 -11 0 -14 -3 -6 -6z"/>
<path d="M2870 284 c0 -8 5 -12 10 -9 6 3 10 10 10 16 0 5 -4 9 -10 9 -5 0
-10 -7 -10 -16z"/>
</g>
</svg>
