<?xml version="1.0" encoding="utf-8"?>
<!-- Generator: Adobe Illustrator 28.3.0, SVG Export Plug-In . SVG Version: 6.00 Build 0)  -->
<svg version="1.1" id="Calque_1" xmlns="http://www.w3.org/2000/svg" xmlns:xlink="http://www.w3.org/1999/xlink" x="0px" y="0px"
	 viewBox="0 0 1000 578.9" style="enable-background:new 0 0 1000 578.9;" xml:space="preserve">
<g>
	<path d="M171,61.4l-0.3,0.3l-32.4,122l-45-169.8l-0.3-1.2H42.3L7,48v283.9h39.1L81.3,297l0.5-0.5v-36.8l18.9,70.9l0.3,1.2h39.5
		l48.3-48.3l0.3-0.3l6.3-23.8v72.4h39.1l35.2-34.8l0.5-0.5V12.7h-50.5L171,61.4z M108,322.8l-26.2-98.7v-90l39.6,147.6l57.5-215.5
		l33.8-33.8l-77.8,290.4H108z M204.4,322.8V225l23.7-89.4v187.3H204.4z M16,322.8V51.7L39.7,28v294.8H16z"/>
	<path d="M424.7,6.1h-16.4c-59.9,0-108.7,48.7-108.7,108.7V246c0,50.9,41.4,92.3,92.3,92.3h16.3c59.9,0,108.7-48.7,108.7-108.7
		v-37.2H478l-34.8,34.8l-0.5,0.5v0.7c-0.4,19.7-15.5,35.2-34.3,35.2c-18.7,0-33.9-15.2-33.9-33.9V113.6c0-18,15.2-32.7,33.9-32.7
		c18.9,0,34.3,15.2,34.3,33.9v22.9h39.1l34.8-36.9l0.4-0.5v-0.7C517.1,47.2,476.5,6.1,424.7,6.1z M457.5,128.7l24.3-25.8h20.4
		L478,128.7H457.5z M392,305.7c32.9,0,59.7-26.8,59.7-59.7v-11.9h23.7V246c0,49.9-43.1,83.4-83.4,83.4c-46,0-83.4-37.4-83.4-83.4
		V114.8c0-42.5,27-80,66-93.9c-26.1,16.9-42.3,46-42.3,77.6V246C332.4,278.9,359.1,305.7,392,305.7z M408.4,71.9
		c-12.8,0-24.1,4.9-32.1,13.6c6.2-22.2,25.6-37.7,48.4-37.7c26.9,0,49.5,21.9,50.6,48.8l-23.7,25.5v-7.3
		C451.7,91.2,432.3,71.9,408.4,71.9z M501.7,201.5L478,225.2h-19.9l23.7-23.7H501.7z"/>
	<path d="M663.8,6.1h-16.3c-59.9,0-108.7,48.7-108.7,108.7v16.3c0,50.9,41.4,92.4,92.3,92.4c17.4,0,35.5-5.5,50.3-15.3v21.4
		c0,18.7-15.2,33.9-33.9,33.9c-18.9,0-33.9-15.4-33.9-35.7v-1.6h-39.1l-35.2,37.3l-0.6,0.6l0.2,0.8c8.2,42.4,47.7,73.4,92.3,73.4
		h16.4c59.9,0,108.7-48.7,108.7-108.7V98.5C756.2,47.6,714.8,6.1,663.8,6.1z M599.3,235.2L576,261H554l24.3-25.8H599.3z
		 M631.1,296.7c-21.3,0-40-11.5-47.6-30.4l22-24.9c4.3,18.9,21.2,31.3,41.9,31.3c12.8,0,24.2-5.3,32.3-14.7
		C674.3,280.4,654.4,296.7,631.1,296.7z M690.4,246v-55.8l-2.7,2.2c-17.9,14.7-37,22.1-56.6,22.1c-46,0-83.4-37.4-83.4-83.4v-16.3
		c0-42,27-79.4,65.8-93.7c-26.3,17.2-42.1,45.7-42.1,77.4v32.7c0,32.9,26.8,59.7,59.6,59.7c32.7,0,59.3-26.8,59.3-59.7v-16.3
		c0-23.7-19.2-42.9-42.9-42.9c-13.1,0-24.8,5.3-32.8,14.7c5.3-22.3,25.7-38.9,49.2-38.9c27.5,0,50.7,23.2,50.7,50.7V246
		c0,46-37.4,83.4-83.4,83.4c-38.1,0-71.8-24.2-81.7-59.4h25.4c9.4,22.4,31.1,35.7,56.3,35.7C663.8,305.7,690.4,278.9,690.4,246z
		 M681.4,114.8c0,18.7-15.2,33.9-33.9,33.9c-18.9,0-34.3-15.2-34.3-33.9c0-18.7,15.4-33.9,34.3-33.9
		C666.2,80.9,681.4,96.1,681.4,114.8z M723.5,246V98.5c0-32.9-26.8-59.7-59.7-59.7c-32.9,0-59.7,26.8-59.7,59.7v16.3
		c0,23.7,19.4,42.9,43.3,42.9c12.8,0,24.2-5.3,32.3-14.6c-5.5,22.5-25.4,38.8-48.7,38.8c-27.9,0-50.7-22.7-50.7-50.7V98.5
		c0-46,37.4-83.4,83.4-83.4c46,0,83.4,37.4,83.4,83.4v131.2c0,42.5-27.1,80.1-66.1,93.9C707.6,306.5,723.5,277.9,723.5,246z"/>
	<path d="M994.5,107.9c0-61.8-36.1-101.7-91.9-101.7h-16.4c-59.9,0-108.7,48.7-108.7,108.7V152h39.1l35.2-34.8l0.5-0.5v-0.7
		c0-21.7,19.3-35.2,37.2-35.2c15.1,0,30.3,8.4,30.3,27c0,15.4-12.1,24.1-28.2,24.1h-0.7L856,167.2l-0.5,0.5v39.1h37.2
		c15.1,0,27,14.7,27,29.8c0,13.3-12.5,27-33.5,27c-18.7,0-33.9-15.2-33.9-33.9v-22.9h-39.5L778,243.7l-0.5,0.5v0.6
		c0,52.5,40.6,93.6,92.3,93.6h16.3c61.7,0,108.3-43.7,108.3-101.7c0-23.4-8-45.5-23.2-64.2C986.3,154.1,994.5,131.2,994.5,107.9z
		 M786.5,136.6v-21.8c0-42.5,27.2-80,66.4-93.9c-26.3,17-42.7,46.1-42.7,77.6v14.5L786.5,136.6z M792.9,143l23.7-23.7h20.3l-24,23.7
		H792.9z M961.4,241.5c0-42.6-28.9-76.4-68.6-76.4h-21.8l23.8-24.2c19.7-1.5,34-13.7,34-33.1c0-21.2-16.1-36-39.2-36
		c-13.6,0-27.3,6.6-36.3,17.3c4.6-23.6,25.3-41.4,49.4-41.4c28,0,49.9,24.2,49.9,55.2c0,18.8-6.4,35.5-18.4,48.3l-1.5,1.6l1.9,1
		c31.5,16.4,51,48.1,51,82.7c0,43.7-28,78.3-70.7,89C943.4,308.1,961.4,276.3,961.4,241.5z M946.6,150.4
		c10.1-13.9,14.8-29,14.8-47.4c0-36-25.8-64.2-58.8-64.2c-32.7,0-59.3,26.8-59.3,59.7v11.9h-24.1V98.5c0-46,37.4-83.4,83.4-83.4
		c50.4,0,83,36.4,83,92.8c0,20.8-7.2,41.2-20.2,57.6C959.2,159.5,953.3,154.7,946.6,150.4z M837,215.8l-24.3,25.8h-20.5l24.3-25.8
		H837z M869.9,296.7c-26.9,0-49.5-21.8-50.7-48.8l24.1-25.2v7c0,23.7,19.2,42.9,42.9,42.9c12.8,0,23.1-3.8,31.4-11.6
		C911.5,282,892.3,296.7,869.9,296.7z M928.7,246v-9.4c0-20.2-15.8-38.8-36-38.8h-28.2v-23.7h28.2c34.6,0,59.7,30,59.7,67.4
		c0,47.6-37.8,87.9-82.6,87.9c-44.2,0-80.4-34.5-83.3-78.9h23.7c2.8,31.1,28.7,55.2,59.5,55.2C902.8,305.7,928.7,279.5,928.7,246z"
		/>
</g>
<g>
	<path d="M6.9,386.5h10.2v5c2.3-3,5.4-5.6,10.6-5.6c4.7,0,8.2,2,10.1,5.6c3.2-3.6,6.9-5.6,11.8-5.6c7.6,0,12.1,4.5,12.1,12.9v22.9
		H51.6v-19.6c0-4.7-2.1-7.2-6-7.2c-3.8,0-6.2,2.4-6.2,7.2v19.6H29.3v-19.6c0-4.7-2.1-7.2-6-7.2c-3.8,0-6.2,2.4-6.2,7.2v19.6H6.9
		V386.5z"/>
	<path d="M68.8,411.6v-0.1c0-7.7,6-11.2,14.5-11.2c3.6,0,6.2,0.6,8.8,1.4v-0.6c0-4.1-2.6-6.4-7.7-6.4c-3.9,0-6.6,0.7-9.9,1.9
		l-2.5-7.6c4-1.7,7.8-2.8,14-2.8c5.6,0,9.6,1.4,12.1,3.9c2.7,2.6,3.9,6.5,3.9,11.2v20.4H92v-3.8c-2.5,2.7-5.9,4.5-10.9,4.5
		C74.3,422.4,68.8,418.6,68.8,411.6z M92.2,409.3v-1.8c-1.7-0.8-4-1.3-6.5-1.3c-4.4,0-7,1.7-7,4.9v0.1c0,2.7,2.3,4.3,5.6,4.3
		C88.9,415.5,92.2,412.9,92.2,409.3z"/>
	<path d="M111.1,373.8h10.7v8.9h-10.7V373.8z M111.3,386.5h10.2v35.2h-10.2V386.5z"/>
	<path d="M128.6,417.1l4.4-6.6c3.9,2.8,8,4.2,11.3,4.2c3,0,4.3-1.1,4.3-2.6v-0.1c0-2.2-3.5-2.9-7.4-4.1c-5-1.4-10.7-3.7-10.7-10.6
		v-0.1c0-7.2,5.9-11.2,13.1-11.2c4.6,0,9.5,1.5,13.4,4.1L153,397c-3.6-2-7.1-3.3-9.7-3.3c-2.5,0-3.8,1-3.8,2.4v0.1
		c0,2,3.4,2.9,7.3,4.2c5,1.6,10.9,4,10.9,10.4v0.1c0,7.8-6,11.4-13.7,11.4C139,422.4,133.3,420.7,128.6,417.1z"/>
	<path d="M163.6,404.3v-0.1c0-10.1,8.3-18.3,19.5-18.3c11.1,0,19.4,8.1,19.4,18.2v0.1c0,10.1-8.3,18.3-19.5,18.3
		C171.8,422.5,163.6,414.4,163.6,404.3z M192.4,404.3v-0.1c0-5.2-3.8-9.7-9.5-9.7c-5.8,0-9.3,4.4-9.3,9.6v0.1c0,5.2,3.8,9.7,9.5,9.7
		C188.9,413.9,192.4,409.5,192.4,404.3z"/>
	<path d="M210.1,386.5h10.2v5c2.3-3,5.4-5.6,10.5-5.6c7.7,0,12.2,5,12.2,13.1v22.8h-10.2v-19.6c0-4.7-2.3-7.2-6.2-7.2
		s-6.4,2.4-6.4,7.2v19.6h-10.2V386.5z"/>
	<path d="M270.8,404.2v-0.1c0-11.7,7.8-18.2,16.4-18.2c5.4,0,8.8,2.4,11.2,5.3v-17.3h10.2v47.9h-10.2v-5.1
		c-2.5,3.3-5.9,5.7-11.2,5.7C278.8,422.4,270.8,415.9,270.8,404.2z M298.5,404.2v-0.1c0-5.8-4-9.7-8.7-9.7c-4.8,0-8.8,3.8-8.8,9.7
		v0.1c0,5.8,4,9.7,8.8,9.7C294.6,413.9,298.5,410,298.5,404.2z"/>
	<path d="M316.2,404.3v-0.1c0-10,7.3-18.3,17.8-18.3c12,0,17.5,9.1,17.5,19.1c0,0.8-0.1,1.7-0.1,2.6h-25c1,4.5,4.2,6.9,8.8,6.9
		c3.4,0,5.9-1,8.7-3.6l5.8,5.1c-3.3,4.1-8.2,6.6-14.7,6.6C324.2,422.5,316.2,415.1,316.2,404.3z M341.6,401.4
		c-0.6-4.5-3.3-7.5-7.6-7.5c-4.2,0-7,3-7.8,7.5H341.6z"/>
	<path d="M380.1,373.8h10.2v47.9h-10.2V373.8z"/>
	<path d="M398,411.6v-0.1c0-7.7,6-11.2,14.5-11.2c3.6,0,6.2,0.6,8.8,1.4v-0.6c0-4.1-2.6-6.4-7.7-6.4c-3.9,0-6.6,0.7-9.9,1.9
		l-2.5-7.6c4-1.7,7.8-2.8,13.9-2.8c5.6,0,9.6,1.4,12.1,3.9c2.7,2.6,3.9,6.5,3.9,11.2v20.4h-9.9v-3.8c-2.5,2.7-5.9,4.5-10.9,4.5
		C403.6,422.4,398,418.6,398,411.6z M421.4,409.3v-1.8c-1.7-0.8-4-1.3-6.5-1.3c-4.4,0-7,1.7-7,4.9v0.1c0,2.7,2.3,4.3,5.6,4.3
		C418.2,415.5,421.4,412.9,421.4,409.3z"/>
	<path d="M458.6,404.3v-0.1c0-10,7.8-18.3,18.8-18.3c6.8,0,11,2.2,14.3,5.9l-6.2,6.6c-2.3-2.4-4.6-3.9-8.2-3.9
		c-5.1,0-8.7,4.4-8.7,9.6v0.1c0,5.4,3.6,9.7,9.1,9.7c3.4,0,5.8-1.4,8.2-3.7l6,5.9c-3.5,3.7-7.5,6.4-14.7,6.4
		C466.5,422.5,458.6,414.4,458.6,404.3z"/>
	<path d="M498.6,409.3v-22.8h10.2v19.6c0,4.7,2.3,7.2,6.2,7.2c3.9,0,6.4-2.4,6.4-7.2v-19.6h10.2v35.2h-10.2v-5
		c-2.3,3-5.4,5.6-10.5,5.6C503.1,422.4,498.6,417.4,498.6,409.3z"/>
	<path d="M541.4,373.8h10.2v47.9h-10.2V373.8z"/>
	<path d="M563.1,411.7v-16.7h-4.3v-8.5h4.3v-9h10.2v9h8.4v8.5h-8.4v15c0,2.3,1,3.4,3.3,3.4c1.9,0,3.6-0.5,5-1.2v8
		c-2.1,1.2-4.6,2-8,2C567.4,422.3,563.1,419.9,563.1,411.7z"/>
	<path d="M589.3,409.3v-22.8h10.2v19.6c0,4.7,2.3,7.2,6.2,7.2c3.9,0,6.4-2.4,6.4-7.2v-19.6h10.2v35.2H612v-5
		c-2.3,3-5.4,5.6-10.5,5.6C593.8,422.4,589.3,417.4,589.3,409.3z"/>
	<path d="M631.6,386.5h10.2v7.1c2.1-4.9,5.4-8,11.5-7.7v10.4h-0.5c-6.8,0-10.9,4-10.9,12.4v13h-10.2V386.5z"/>
	<path d="M658.1,404.3v-0.1c0-10,7.3-18.3,17.8-18.3c12,0,17.5,9.1,17.5,19.1c0,0.8-0.1,1.7-0.1,2.6h-25c1,4.5,4.2,6.9,8.8,6.9
		c3.4,0,5.9-1,8.7-3.6l5.8,5.1c-3.4,4.1-8.2,6.6-14.7,6.6C666.1,422.5,658.1,415.1,658.1,404.3z M683.5,401.4
		c-0.6-4.5-3.3-7.5-7.6-7.5c-4.2,0-7,3-7.8,7.5H683.5z"/>
	<path d="M5.3,475.3v-0.1c0-11.5,7.7-17.8,16-17.8c5.3,0,8.6,2.4,11,5.1v-16.9h10v46.9h-10v-4.9c-2.4,3.2-5.8,5.6-11,5.6
		C13.1,493.1,5.3,486.8,5.3,475.3z M32.4,475.3v-0.1c0-5.7-3.9-9.5-8.5-9.5c-4.7,0-8.6,3.7-8.6,9.5v0.1c0,5.7,3.9,9.5,8.6,9.5
		C28.5,484.8,32.4,481,32.4,475.3z"/>
	<path d="M49.4,475.4v-0.1c0-9.8,7.2-17.9,17.4-17.9c11.7,0,17.1,8.9,17.1,18.7c0,0.8-0.1,1.7-0.1,2.6H59.3c1,4.4,4.1,6.7,8.6,6.7
		c3.3,0,5.8-1,8.5-3.5l5.7,4.9c-3.3,4-8,6.4-14.4,6.4C57.2,493.2,49.4,486,49.4,475.4z M74.2,472.5c-0.6-4.4-3.2-7.3-7.4-7.3
		c-4.1,0-6.8,2.9-7.6,7.3H74.2z"/>
	<path d="M108.6,485.9l6-7c4.1,3.3,8.5,5.5,13.7,5.5c4.1,0,6.6-1.6,6.6-4.2V480c0-2.5-1.6-3.8-9.3-5.7c-9.2-2.3-15.2-4.8-15.2-13.7
		v-0.1c0-8.2,6.7-13.5,16.1-13.5c6.7,0,12.4,2.1,17.1,5.7l-5.3,7.4c-4.1-2.8-8.1-4.4-11.9-4.4c-3.9,0-5.9,1.7-5.9,3.9v0.1
		c0,3,2,3.9,9.9,5.9c9.3,2.4,14.6,5.6,14.6,13.5v0.1c0,8.9-7,13.9-16.9,13.9C121.1,493.1,114.1,490.7,108.6,485.9z"/>
	<path d="M151,475.4v-0.1c0-9.8,7.2-17.9,17.4-17.9c11.7,0,17.1,8.9,17.1,18.7c0,0.8-0.1,1.7-0.1,2.6h-24.5c1,4.4,4.1,6.7,8.6,6.7
		c3.3,0,5.8-1,8.5-3.5l5.7,4.9c-3.3,4-8,6.4-14.4,6.4C158.8,493.2,151,486,151,475.4z M175.8,472.5c-0.6-4.4-3.2-7.3-7.4-7.3
		c-4.1,0-6.8,2.9-7.6,7.3H175.8z"/>
	<path d="M193.1,445.6h10.5v8.7h-10.5V445.6z M193.4,458h10v34.4h-10V458z"/>
	<path d="M212.7,458h10v4.9c2.3-2.9,5.2-5.5,10.3-5.5c7.5,0,11.9,4.9,11.9,12.8v22.3h-10v-19.2c0-4.6-2.2-7-6-7
		c-3.8,0-6.2,2.4-6.2,7v19.2h-10V458z"/>
	<path d="M251.9,475.4v-0.1c0-9.8,7.2-17.9,17.4-17.9c11.7,0,17.1,8.9,17.1,18.7c0,0.8-0.1,1.7-0.1,2.6h-24.5c1,4.4,4.1,6.7,8.6,6.7
		c3.3,0,5.8-1,8.5-3.5l5.7,4.9c-3.3,4-8,6.4-14.4,6.4C259.7,493.2,251.9,486,251.9,475.4z M276.7,472.5c-0.6-4.4-3.2-7.3-7.4-7.3
		c-4.1,0-6.8,2.9-7.6,7.3H276.7z"/>
	<path d="M292.7,467.9h20.2v9.4h-20.2V467.9z"/>
	<path d="M318.3,485.9l6-7c4.1,3.3,8.5,5.5,13.7,5.5c4.1,0,6.6-1.6,6.6-4.2V480c0-2.5-1.6-3.8-9.3-5.7c-9.2-2.3-15.2-4.8-15.2-13.7
		v-0.1c0-8.2,6.7-13.5,16.1-13.5c6.7,0,12.4,2.1,17.1,5.7L348,460c-4.1-2.8-8.1-4.4-11.9-4.4c-3.9,0-5.9,1.7-5.9,3.9v0.1
		c0,3,2,3.9,9.9,5.9c9.3,2.4,14.6,5.6,14.6,13.5v0.1c0,8.9-7,13.9-16.9,13.9C330.8,493.1,323.8,490.7,318.3,485.9z"/>
	<path d="M360.2,482.6v-0.1c0-7.5,5.8-11,14.2-11c3.5,0,6.1,0.6,8.6,1.4v-0.6c0-4-2.6-6.3-7.5-6.3c-3.8,0-6.5,0.7-9.7,1.9l-2.5-7.4
		c3.9-1.7,7.7-2.8,13.7-2.8c5.4,0,9.4,1.4,11.9,3.9c2.6,2.6,3.8,6.4,3.8,11v20H383v-3.7c-2.4,2.6-5.8,4.4-10.6,4.4
		C365.7,493.1,360.2,489.4,360.2,482.6z M383.2,480.3v-1.7c-1.7-0.8-3.9-1.3-6.4-1.3c-4.3,0-6.9,1.7-6.9,4.7v0.1
		c0,2.6,2.2,4.2,5.4,4.2C380,486.3,383.2,483.8,383.2,480.3z"/>
	<path d="M401.4,445.6h10.5v8.7h-10.5V445.6z M401.6,458h10v34.4h-10V458z"/>
	<path d="M421,458h10v4.9c2.3-2.9,5.2-5.5,10.3-5.5c7.5,0,11.9,4.9,11.9,12.8v22.3h-10v-19.2c0-4.6-2.2-7-6-7c-3.8,0-6.2,2.4-6.2,7
		v19.2h-10V458z"/>
	<path d="M463.5,482.7v-16.3h-4.2V458h4.2v-8.8h10v8.8h8.3v8.3h-8.3v14.7c0,2.2,1,3.3,3.2,3.3c1.8,0,3.5-0.4,4.9-1.2v7.8
		c-2.1,1.2-4.5,2-7.9,2C467.7,493,463.5,490.6,463.5,482.7z"/>
	<path d="M487.7,467.9h20.2v9.4h-20.2V467.9z"/>
	<path d="M516.4,447.5h17.9c14.4,0,24.4,9.7,24.4,22.3v0.1c0,12.6-10,22.5-24.4,22.5h-17.9V447.5z M534.3,483.5
		c8.3,0,13.8-5.5,13.8-13.4V470c0-8-5.6-13.5-13.8-13.5h-7.8v27.1H534.3z"/>
	<path d="M565,475.4v-0.1c0-9.8,7.2-17.9,17.4-17.9c11.7,0,17.1,8.9,17.1,18.7c0,0.8-0.1,1.7-0.1,2.6h-24.5c1,4.4,4.1,6.7,8.6,6.7
		c3.3,0,5.8-1,8.5-3.5l5.7,4.9c-3.3,4-8,6.4-14.4,6.4C572.8,493.2,565,486,565,475.4z M589.8,472.5c-0.6-4.4-3.2-7.3-7.4-7.3
		c-4.1,0-6.8,2.9-7.6,7.3H589.8z"/>
	<path d="M606.9,458h10v4.9c2.3-2.9,5.2-5.5,10.3-5.5c7.5,0,11.9,4.9,11.9,12.8v22.3h-10v-19.2c0-4.6-2.2-7-6-7
		c-3.8,0-6.2,2.4-6.2,7v19.2h-10V458z"/>
	<path d="M648,445.6h10.5v8.7H648V445.6z M648.2,458h10v34.4h-10V458z"/>
	<path d="M664.8,487.9l4.3-6.4c3.8,2.7,7.8,4.1,11.1,4.1c2.9,0,4.2-1,4.2-2.6v-0.1c0-2.1-3.4-2.8-7.3-4c-4.9-1.4-10.5-3.7-10.5-10.3
		v-0.1c0-7,5.8-10.9,12.9-10.9c4.5,0,9.3,1.5,13.1,4l-3.8,6.7c-3.5-2-7-3.2-9.5-3.2c-2.4,0-3.7,1-3.7,2.4v0.1c0,1.9,3.3,2.8,7.2,4.1
		c4.9,1.6,10.6,3.9,10.6,10.2v0.1c0,7.6-5.8,11.1-13.5,11.1C675,493.1,669.5,491.5,664.8,487.9z"/>
	<path d="M7.9,518.2h21.3c5.3,0,9.4,1.4,12,4c2.1,2.1,3.1,4.6,3.1,7.6v0.1c0,5.1-2.8,7.9-6,9.7c5.3,2,8.6,5,8.6,11v0.1
		c0,8.2-6.8,12.3-17.2,12.3H7.9V518.2z M27.1,536.4c4.5,0,7.3-1.4,7.3-4.7v-0.1c0-3-2.4-4.6-6.6-4.6h-10v9.5H27.1z M29.7,554.5
		c4.5,0,7.2-1.5,7.2-4.9v-0.1c0-3-2.3-4.9-7.5-4.9H17.7v9.9H29.7z"/>
	<path d="M52.5,546.2V546c0-9.9,8.1-17.9,19.1-17.9c10.9,0,19,7.9,19,17.8v0.1c0,9.9-8.1,17.9-19.1,17.9
		C60.6,563.9,52.5,556,52.5,546.2z M80.7,546.2V546c0-5.1-3.7-9.5-9.3-9.5c-5.7,0-9.1,4.3-9.1,9.4v0.1c0,5.1,3.7,9.5,9.3,9.5
		C77.3,555.5,80.7,551.2,80.7,546.2z"/>
	<path d="M107.8,558.7v4.5h-10v-46.9h10v17.4c2.4-3.2,5.8-5.6,11-5.6c8.2,0,16,6.3,16,17.8v0.1c0,11.5-7.7,17.8-16,17.8
		C113.4,563.8,110.1,561.4,107.8,558.7z M124.8,546v-0.1c0-5.7-3.9-9.5-8.6-9.5c-4.7,0-8.5,3.8-8.5,9.5v0.1c0,5.7,3.9,9.5,8.5,9.5
		C120.8,555.5,124.8,551.8,124.8,546z"/>
	<path d="M142.3,516.3h10.5v8.7h-10.5V516.3z M142.5,528.8h10v34.4h-10V528.8z"/>
	<path d="M162.1,570l3.4-7.3c3.6,2,7.2,3.1,11.9,3.1c6.8,0,10-3.2,10-9.4v-1.7c-3,3.5-6.2,5.6-11.5,5.6c-8.2,0-15.6-5.8-15.6-16
		v-0.1c0-10.3,7.5-16,15.6-16c5.4,0,8.7,2.2,11.4,5.1v-4.5h10v26.6c0,6.2-1.5,10.7-4.5,13.5c-3.3,3.2-8.3,4.6-15.2,4.6
		C171.9,573.6,166.6,572.3,162.1,570z M187.4,544.3v-0.1c0-4.7-3.7-8-8.6-8c-4.9,0-8.5,3.3-8.5,8v0.1c0,4.7,3.7,8,8.5,8
		C183.7,552.3,187.4,549,187.4,544.3z"/>
	<path d="M206.2,528.8h10v4.9c2.3-2.9,5.2-5.5,10.3-5.5c7.5,0,11.9,4.9,11.9,12.8v22.3h-10V544c0-4.6-2.2-7-6-7
		c-3.8,0-6.2,2.4-6.2,7v19.2h-10V528.8z"/>
	<path d="M246.6,571.3l3.3-7.1c1.3,0.8,3,1.3,4.3,1.3c1.7,0,2.6-0.5,3.5-2.2l-13.8-34.5h10.6l8,23.4l7.7-23.4h10.4L267,564
		c-2.7,7-5.6,9.6-11.5,9.6C251.9,573.6,249.2,572.7,246.6,571.3z"/>
</g>
</svg>
